{"title":"Leatherheads[2008]720p.XviD.AC3.6Chn.Cody'sBRrip","uid":5325428,"size":3093473109,"categoryP":"video","categoryS":"hd___movies","magnet":"?xt=urn:btih:b84dd571a4e0650b011d9cbe3611ded40afbbb0c&amp;dn=Leatherheads%5B2008%5D720p.XviD.AC3.6Chn.Cody%5C%27sBRrip&amp;tr=udp%3A%2F%2Ftracker.openbittorrent.com%3A80&amp;tr=udp%3A%2F%2Fopen.demonii.com%3A1337&amp;tr=udp%3A%2F%2Ftracker.coppersurfer.tk%3A6969&amp;tr=udp%3A%2F%2Fexodus.desync.com%3A6969","seeders":1,"leechers":2,"uploader":"CODYBOSS1969","files":4,"time":1265003622,"description":"General\n\nComplete name: \n\nLeatherheads[2008]720p.XviD.AC3.6Chn.Cody'sBRrip.avi\n\nFormat                           : AVI\nFormat/Info                      : Audio Video Interleave\nFormat profile                   : OpenDML\nFile size                        : 2.88 GiB\nDuration                         : 1h 53mn\nOverall bit rate                 : 3 627 Kbps\nWriting application              : AVI-Mux GUI 1.17.8, Aug 30 2008  12:36:58\n\nVideo\nFormat                           : MPEG-4 Visual\nFormat profile                   : Streaming Video@L1\nFormat settings, BVOP            : Yes\nFormat settings, QPel            : No\nFormat settings, GMC             : 3 warppoints\nFormat settings, Matrix          : Default\nMuxing mode                      : Packet Bitstream\nCodec ID                         : XVID\nCodec ID/Hint                    : XviD\nDuration                         : 1h 53mn\nBit rate                         : 2 981 Kbps\nWidth                            : 1 280 pixels\nHeight                           : 688 pixels\nDisplay aspect ratio             : 1.860\nFrame rate                       : 23.976 fps\nResolution                       : 24 bits\nColorimetry                      : 4:2:0\nScan type                        : Progressive\nBits/(Pixel*Frame)               : 0.141\nStream size                      : 2.37 GiB (82%)\nWriting library                  : XviD 1.2.0.dev47 (UTC 2006-11-01)\n\nAudio\nFormat                           : AC-3\nFormat/Info                      : Audio Coding 3\nCodec ID                         : 2000\nBit rate mode                    : Constant\nBit rate                         : 640 Kbps\nChannel(s)                       : 6 channels\nChannel positions                : Front: L C R, Rear: L R, LFE\nSampling rate                    : 48.0 KHz\nStream size                      : 521 MiB (18%)\nAlignment                        : Aligned on interleaves\nInterleave, duration             : 64 ms (1.53 video frames)\nInterleave, preload duration     : 192 ms\n\n\n\n\n\n\nSubtitles included: Romanian\n\n &lt;a href=&quot;\nhttp://www.imdb.com/title/tt0379865/&quot; rel=&quot;nofollow&quot; target=&quot;_NEW&quot;&gt;\nhttp://www.imdb.com/title/tt0379865/&lt;/a&gt;\n\n\n\nDON'T FORGET TO SEED!\n\nHIT AND RUN IS NOT AN OPTION BECAUSE THIS IS...A TORRENT !!!","torrent":{"xt":"urn:btih:b84dd571a4e0650b011d9cbe3611ded40afbbb0c","amp;dn":"Leatherheads%5B2008%5D720p.XviD.AC3.6Chn.Cody%5C%27sBRrip","amp;tr":["udp%3A%2F%2Ftracker.openbittorrent.com%3A80","udp%3A%2F%2Fopen.demonii.com%3A1337","udp%3A%2F%2Ftracker.coppersurfer.tk%3A6969","udp%3A%2F%2Fexodus.desync.com%3A6969"],"infoHash":"b84dd571a4e0650b011d9cbe3611ded40afbbb0c","infoHashBuffer":{"type":"Buffer","data":[184,77,213,113,164,224,101,11,1,29,156,190,54,17,222,212,10,251,187,12]},"announce":[],"urlList":[]}}